# xmcd CD database file
#
# Track frame offsets:
#	150
#	11240
#	21991
#	32518
#	46010
#	60311
#	72438
#	79653
#	90980
#	99744
#	111891
#	124180
#	139582
#	149684
#	162254
#	173284
#	183798
#	193598
#	206100
#	215462
#
# Disc length: 3013 seconds
#
# Revision: 2
# Processed by: cddbd v1.5.2PL0 Copyright (c) Steve Scherf et al.
# Submitted via: CDex 1.51
#
DISCID=0f0bc314
DTITLE=Peggy Lee - [1920-2002] - Jazz Diva's
DYEAR=1900
DGENRE=Jazz
TTITLE0=Fools Rush In
TTITLE1=For Sentimental Reasons
TTITLE2=From This Moment On
TTITLE3=He's Just My Kind
TTITLE4=I Can't Stop Loving You
TTITLE5=I Don't Know Enough About You
TTITLE6=I feel A Song Coming On
TTITLE7=I Get A Kick Out Of You
TTITLE8=I love Being Here With You
TTITLE9=I'm Beginning To See The Light
TTITLE10=I'm Confessin'
TTITLE11=It Aint Necessarily So
TTITLE12=It's A Good Day
TTITLE13=I've Got A Right To Sing The Blues
TTITLE14=Just One More Chance
TTITLE15=Just One Of Those Things
TTITLE16=Let There Be Love
TTITLE17=Lonesome Road
TTITLE18=Love Is Just Around The Corner
TTITLE19=Lover
EXTD=
EXTT0=
EXTT1=
EXTT2=
EXTT3=
EXTT4=
EXTT5=
EXTT6=
EXTT7=
EXTT8=
EXTT9=
EXTT10=
EXTT11=
EXTT12=
EXTT13=
EXTT14=
EXTT15=
EXTT16=
EXTT17=
EXTT18=
EXTT19=
PLAYORDER=
